# AST/ASF file generated using VICON BodyLanguage
# -----------------------------------------------
:version 1.10
:name VICON
:units
  mass 1.0
  length 0.45
  angle deg
:documentation
   .ast/.asf automatically generated from VICON data using
   VICON BodyBuilder and BodyLanguage model FoxedUp or BRILLIANT.MOD
:root
   order TX TY TZ RX RY RZ
   axis XYZ
   position 0 0 0  
   orientation 0 0 0 
:bonedata
  begin
     id 1 
     name lhipjoint
     direction 0.440178 -0.822639 0.359871 
     length 2.53113 
     axis 0 0 0  XYZ
  end
  begin
     id 2 
     name lfemur
     direction 0.34202 -0.939693 0  
     length 7.88132  
     axis 0 0 20  XYZ
    dof rx ry rz
    limits (-160.0 20.0)
           (-70.0 70.0)
           (-60.0 70.0)
  end
  begin
     id 3 
     name ltibia
     direction 0.34202 -0.939693 0   
     length 8.43783   
     axis 0 0 20   XYZ
    dof rx
    limits (-10.0 170.0)
  end
  begin
     id 4 
     name lfoot
     direction 0.0886351 -0.243523 0.965837   
     length 2.63414   
     axis -90 7.62852e-016 20   XYZ
    dof rx rz
    limits (-45.0 90.0)
           (-70.0 20.0)
  end
  begin
     id 5 
     name ltoes
     direction 1.53703e-011 -4.21717e-011 1   
     length 1.31427   
     axis -90 7.62852e-016 20   XYZ
    dof rx
    limits (-90.0 20.0)
  end
  begin
     id 6 
     name rhipjoint
     direction -0.399779 -0.839773 0.367367   
     length 2.47948  
     axis 0 0 0  XYZ 
  end
  begin
     id 7 
     name rfemur
     direction -0.34202 -0.939693 0   
     length 7.74806   
     axis 0 0 -20   XYZ
    dof rx ry rz
    limits (-160.0 20.0)
           (-70.0 70.0)
           (-70.0 60.0)
  end
  begin
     id 8 
     name rtibia
     direction -0.34202 -0.939693 0   
     length 8.74432   
     axis 0 0 -20   XYZ
    dof rx
    limits (-10.0 170.0)
 end
 begin
     id 9 
     name rfoot
     direction -0.108514 -0.298139 0.948334   
     length 2.66102  
     axis -90 -7.62852e-016 -20   XYZ
    dof rx rz
    limits (-45.0 90.0)
           (-20.0 70.0)
  end
  begin
     id 10 
     name rtoes
     direction -1.53392e-011 -4.22077e-011 1   
     length 1.31983   
     axis -90 -7.62852e-016 -20   XYZ
    dof rx
    limits (-90.0 20.0)
  end
  begin
     id 11 
     name lowerback
     direction 0.0113257 0.999866 0.0118602   
     length 2.58694   
     axis 0 0 0   XYZ
    dof rx ry rz
    limits (-20.0 45.0)
           (-30.0 30.0)
           (-30.0 30.0)
  end
  begin
     id 12 
     name upperback
     direction -0.0164747 0.995193 -0.0965375   
     length 2.52368   
     axis 0 0 0   XYZ
    dof rx ry rz
    limits (-20.0 45.0)
           (-30.0 30.0)
           (-30.0 30.0)
  end
  begin
     id 13 
     name thorax
     direction -0.0194301 0.99433 -0.104552   
     length 2.56099   
     axis 0 0 0   XYZ
    dof rx ry rz
    limits (-20.0 45.0)
           (-30.0 30.0)
           (-30.0 30.0)
  end
  begin
     id 14 
     name lowerneck
     direction 0.0148543 0.995587 -0.092657   
     length 1.71582   
     axis 0 0 0   XYZ
    dof rx ry rz
    limits (-20.0 45.0)
           (-30.0 30.0)
           (-30.0 30.0)
  end
  begin
     id 15 
     name upperneck
     direction -0.0135467 0.993656 -0.111639   
     length 1.68937   
     axis 0 0 0   XYZ
    dof rx ry rz
    limits (-20.0 45.0)
           (-30.0 30.0)
           (-30.0 30.0)
  end
  begin
     id 16
     name head
     direction -0.00615349 0.999547 -0.029448  
     length 1.7462  
     axis 0 0 0   XYZ
    dof rx ry rz
    limits (-20.0 45.0)
           (-30.0 30.0)
           (-30.0 30.0)
  end
  begin
     id 17 
     name lclavicle
     direction 0.988267 0.149885 0.0293713  
     length 4.47222  
     axis 0 0 0   XYZ
    dof ry rz
    limits (-20.0 10.0)
           (0.0 20.0)
  end
  begin
     id 18 
     name lhumerus
     direction 1 -4.48986e-011 -1.14833e-027   
     length 5.37148   
     axis 180 -30 -90   XYZ
    dof rx ry rz
    limits (-60.0 90.0)
           (-90.0 90.0)
           (-90.0 90.0)
  end
  begin
     id 19
     name lradius
     direction 0.999998 0.00170963 -0.000987055   
     length 3.94212   
     axis 180 -30 -90   XYZ
    dof rx
    limits (-10.0 170.0)
  end
  begin
     id 20
     name lwrist
     direction 0.999998 7.53149e-005 -0.00194706   
     length 1.97106   
     axis 4.65056e-015 90 90   XYZ
    dof ry
    limits (-180.0 0.0)
 end
  begin
     id 21 
     name lhand
     direction 1 -4.48973e-011 -1.31746e-026   
     length 1.17917   
     axis 8.4065e-015 90 90   XYZ
    dof rx rz
    limits (-90.0 90.0)
           (-45.0 45.0)
  end
  begin
     id 22 
     name lfingers
     direction 1 -4.49107e-011 -2.63492e-026   
     length 0.950679   
     axis 1.6813e-014 90 90   XYZ
    dof rx
    limits (0.0 90.0)
  end
  begin
     id 23
     name lthumb
     direction 0.707107 -6.35048e-011 0.707107   
     length 1.36499   
     axis -90 45 2.85299e-015   XYZ
    dof rx rz
    limits (-45.0 45.0)
           (-45.0 45.0)
  end
  begin
     id 24 
     name rclavicle
     direction -0.996699 0.0642895 -0.0495725   
     length 4.62611  
     axis 0 0 0   XYZ 
    dof ry rz
    limits (-10.0 20.0)
           (-20.0 0.0)
  end
  begin
     id 25 
     name rhumerus
     direction -1 -4.48919e-011 -2.41059e-027  
     length 5.4981   
     axis 180 30 90   XYZ
    dof rx ry rz
    limits (-90.0 60.0)
           (-90.0 90.0)
           (-90.0 90.0)
  end
  begin
     id 26 
     name rradius
     direction -0.999999 0.00118101 -0.000681858   
     length 3.48381   
     axis 180 30 90   XYZ
    dof rx
    limits (-10.0 170.0)
  end
  begin
     id 27 
     name rwrist
     direction -0.999999 0.000321823 -0.00132288   
     length 1.7419   
     axis 4.65056e-015 -90 -90   XYZ
    dof ry
    limits (-180.0 0.0)
  end
  begin
     id 28
     name rhand
     direction -1 -4.49022e-011 -1.31746e-026   
     length 1.34932   
     axis 8.4065e-015 -90 -90   XYZ
    dof rx rz
    limits (-90.0 90.0)
           (-45.0 45.0)
  end
  begin
     id 29
     name rfingers
     direction -1 -4.49178e-011 -2.63492e-026   
     length 1.08785   
     axis 1.6813e-014 -90 -90   XYZ
    dof rx
    limits (0.0 90.0)
  end
  begin
     id 30
     name rthumb
     direction -0.707107 -6.34713e-011 0.707107   
     length 1.56195   
     axis -90 -45 -2.85299e-015   XYZ
    dof rx rz
    limits (-45.0 45.0)
           (-45.0 45.0)
  end
:hierarchy
  begin
    root lhipjoint rhipjoint lowerback
    lhipjoint lfemur
    lfemur ltibia
    ltibia lfoot
    lfoot ltoes
    rhipjoint rfemur
    rfemur rtibia
    rtibia rfoot
    rfoot rtoes
    lowerback upperback
    upperback thorax
    thorax lowerneck lclavicle rclavicle
    lowerneck upperneck
    upperneck head
    lclavicle lhumerus
    lhumerus lradius
    lradius lwrist
    lwrist lhand lthumb
    lhand lfingers
    rclavicle rhumerus
    rhumerus rradius
    rradius rwrist
    rwrist rhand rthumb
    rhand rfingers
  end

#!OML:ASF X:\für Bonn\!DataBase\2005_08_10_Bjorn_Final\c3d\bjorn.ASF
:FULLY-SPECIFIED
:DEGREES
16
root 24.0312 19.4085 -1.695 -14.7416 -77.5614 -346.36
lowerback 2.93575 1.44914 10.5875
upperback 10.5957 1.12837 1.38446
thorax 10.0071 1.23763 -4.36406
lowerneck 2.6984 -3.44193 3.9762
upperneck 25.4053 -5.19593 -3.11137
head 7.15165 -2.65624 -1.99315
rclavicle -1.51076e-014 3.81667e-014
rhumerus -17.3025 -8.67807 -83.6897
rradius 35.4427
rwrist -6.51213
rhand -16.5908 12.599
rfingers 7.12502
rthumb 9.63014 -17.1609
lclavicle -1.51076e-014 3.81667e-014
lhumerus -25.2929 4.7668 87.3752
lradius 21.0338
lwrist -37.3068
lhand -7.00448 -7.25484
lfingers 7.12502
lthumb 18.8665 21.8502
rfemur -17.8418 -11.9643 14.9055
rtibia 27.7101
rfoot -1.91485 13.4275
rtoes -3.71695
lfemur -9.22148 10.9452 -15.5642
ltibia 55.735
lfoot 1.59807 -3.05254
ltoes -19.2423
17
root 23.983 19.4149 -1.70255 -14.6911 -77.563 -346.356
lowerback 3.14776 1.54835 10.7314
upperback 10.7236 1.26402 1.38797
thorax 10.0634 1.31917 -4.43236
lowerneck 2.74961 -3.55011 3.89158
upperneck 25.2188 -5.35122 -2.96692
head 7.08277 -2.72302 -1.93173
rclavicle -3.97569e-015 -3.97569e-014
rhumerus -16.9415 -8.36468 -83.5773
rradius 36.0189
rwrist -6.6687
rhand -16.5157 12.4942
rfingers 7.12502
rthumb 9.70266 -17.2623
lclavicle -3.97569e-015 -3.97569e-014
lhumerus -25.3779 4.40189 87.4484
lradius 21.39
lwrist -36.7271
lhand -7.55661 -7.51986
lfingers 7.12502
lthumb 18.3354 21.636
rfemur -17.7172 -11.9238 14.9391
rtibia 27.6757
rfoot -2.06908 13.4341
rtoes -3.51107
lfemur -10.0395 11.3829 -15.7186
ltibia 55.5074
lfoot 0.555943 -2.90503
ltoes -19.5992
18
root 23.9362 19.4211 -1.70904 -14.6354 -77.5782 -346.348
lowerback 3.35503 1.65286 10.9056
upperback 10.8358 1.41006 1.3688
thorax 10.1104 1.40962 -4.54173
lowerneck 2.82039 -3.6695 3.83319
upperneck 25.0374 -5.52408 -2.81715
head 7.0118 -2.79599 -1.87347
rclavicle -3.49861e-014 -1.59028e-014
rhumerus -16.5926 -8.12068 -83.4872
rradius 36.5461
rwrist -6.80778
rhand -16.457 12.4246
rfingers 7.12502
rthumb 9.75926 -17.3293
lclavicle -3.49861e-014 -1.59028e-014
lhumerus -25.4838 4.05168 87.4794
lradius 21.7665
lwrist -36.2626
lhand -8.0907 -7.77691
lfingers 7.12502
lthumb 17.8216 21.4265
rfemur -17.6073 -11.8824 14.9813
rtibia 27.6474
rfoot -2.23297 13.4402
rtoes -3.52002
lfemur -10.834 11.7933 -15.8647
ltibia 55.2048
lfoot -0.413738 -2.69322
ltoes -19.5983
19
root 23.8902 19.4266 -1.71587 -14.6955 -77.5885 -346.22
lowerback 3.56177 1.75526 11.0294
upperback 10.9471 1.55558 1.34582
thorax 10.1542 1.49575 -4.62787
lowerneck 2.84191 -3.78155 3.77321
upperneck 24.9104 -5.68926 -2.67657
head 6.9677 -2.86613 -1.8205
rclavicle 1.74931e-014 -4.77083e-015
rhumerus -16.2617 -7.88449 -83.3769
rradius 37.099
rwrist -6.97907
rhand -16.339 12.2996
rfingers 7.12502
rthumb 9.87312 -17.4489
lclavicle 1.74931e-014 -4.77083e-015
lhumerus -25.5565 3.7967 87.5131
lradius 22.1154
lwrist -35.8203
lhand -8.6793 -7.9761
lfingers 7.12502
lthumb 17.2551 21.2778
rfemur -17.5022 -11.803 14.9872
rtibia 27.6138
rfoot -2.36552 13.4188
rtoes -3.29719
lfemur -11.5904 12.1419 -16.0458
ltibia 54.8283
lfoot -1.43127 -2.44204
ltoes -19.8572
20
root 23.8458 19.4314 -1.72243 -14.7848 -77.5992 -346.106
lowerback 3.81949 1.86179 11.1732
upperback 11.0642 1.71284 1.31242
thorax 10.1801 1.58933 -4.73737
lowerneck 2.84482 -3.90415 3.74711
upperneck 24.8165 -5.87451 -2.5266
head 6.93702 -2.94214 -1.77253
rclavicle 6.20208e-014 1.27222e-014
rhumerus -15.9066 -7.68507 -83.2655
rradius 37.552
rwrist -7.16966
rhand -16.232 12.288
rfingers 7.12502
rthumb 9.97638 -17.4556
lclavicle 6.20208e-014 1.27222e-014
lhumerus -25.6031 3.43008 87.5572
lradius 22.4715
lwrist -35.2901
lhand -9.18886 -8.15212
lfingers 7.12502
lthumb 16.7646 21.1441
rfemur -17.368 -11.8005 14.9949
rtibia 27.6038
rfoot -2.55109 13.4755
rtoes -3.28884
lfemur -12.2644 12.474 -16.1976
ltibia 54.3735
lfoot -2.41622 -2.19038
ltoes -20.0125
21
root 23.8022 19.4357 -1.72862 -14.7721 -77.6197 -346.076
lowerback 4.05812 1.9753 11.3299
upperback 11.1717 1.87838 1.28149
thorax 10.2102 1.68832 -4.85089
lowerneck 2.84666 -4.04004 3.73533
upperneck 24.7165 -6.07804 -2.37571
head 6.90405 -3.02569 -1.72733
rclavicle 3.73715e-014 3.02153e-014
rhumerus -15.5312 -7.58661 -83.157
rradius 37.9468
rwrist -7.26351
rhand -16.1098 12.2477
rfingers 7.12502
rthumb 10.0943 -17.4902
lclavicle 3.73715e-014 3.02153e-014
lhumerus -25.618 3.09957 87.6024
lradius 22.8125
lwrist -34.8197
lhand -9.70878 -8.26419
lfingers 7.12502
lthumb 16.2641 21.0737
rfemur -17.2647 -11.7276 15.0201
rtibia 27.6021
rfoot -2.68691 13.4691
rtoes -3.0614
lfemur -12.9168 12.7548 -16.3331
ltibia 53.853
lfoot -3.41928 -1.91832
ltoes -20.3912
22
root 23.7601 19.4371 -1.73429 -14.866 -77.6244 -345.957
lowerback 4.32271 2.08418 11.469
upperback 11.2769 2.04384 1.23347
thorax 10.2232 1.78623 -4.97489
lowerneck 2.84503 -4.17841 3.75678
upperneck 24.6461 -6.28959 -2.21963
head 6.88089 -3.11001 -1.6873
rclavicle 7.15625e-015 -2.22639e-014
rhumerus -15.1779 -7.43293 -83.0494
rradius 38.2905
rwrist -7.48576
rhand -16.0208 12.3195
rfingers 7.12502
rthumb 10.1801 -17.4142
lclavicle 7.15625e-015 -2.22639e-014
lhumerus -25.5625 2.94927 87.5983
lradius 23.063
lwrist -34.6
lhand -10.2122 -8.41872
lfingers 7.12502
lthumb 15.7793 20.9581
rfemur -17.168 -11.6953 15.0195
rtibia 27.6404
rfoot -2.84969 13.4916
rtoes -2.92062
lfemur -13.4974 12.9881 -16.4824
ltibia 53.252
lfoot -4.38259 -1.63647
ltoes -21.0397
23
root 23.7196 19.4382 -1.74087 -15.0586 -77.6282 -345.748
lowerback 4.60212 2.1965 11.5573
upperback 11.3965 2.21375 1.19894
thorax 10.2411 1.88133 -5.05674
lowerneck 2.7996 -4.31382 3.76246
upperneck 24.5654 -6.49581 -2.06363
head 6.86267 -3.19265 -1.64552
rclavicle -3.18055e-014 2.54444e-014
rhumerus -14.779 -7.30746 -82.9175
rradius 38.5681
rwrist -7.65114
rhand -15.9474 12.347
rfingers 7.12502
rthumb 10.2509 -17.3832
lclavicle -3.18055e-014 2.54444e-014
lhumerus -25.4243 2.72784 87.6491
lradius 23.2664
lwrist -34.2808
lhand -10.7006 -8.5098
lfingers 7.12502
lthumb 15.3089 20.9036
rfemur -17.0709 -11.6158 14.9931
rtibia 27.6955
rfoot -3.02086 13.4872
rtoes -2.66704
lfemur -14.031 13.2132 -16.6297
ltibia 52.5959
lfoot -5.30412 -1.37359
ltoes -21.4338
24
root 23.6806 19.4375 -1.74687 -15.1893 -77.6426 -345.625
lowerback 4.90849 2.30164 11.6418
upperback 11.5185 2.37595 1.17651
thorax 10.2447 1.97073 -5.12554
lowerneck 2.76742 -4.45276 3.78535
upperneck 24.4803 -6.70193 -1.93341
head 6.83946 -3.27609 -1.61441
rclavicle -8.26944e-014 -3.49861e-014
rhumerus -14.3691 -7.13987 -82.7794
rradius 38.781
rwrist -7.82548
rhand -15.8943 12.4779
rfingers 7.12502
rthumb 10.3021 -17.2498
lclavicle -8.26944e-014 -3.49861e-014
lhumerus -25.2519 2.73587 87.6532
lradius 23.417
lwrist -34.207
lhand -11.1415 -8.71421
lfingers 7.12502
lthumb 14.8841 20.7311
rfemur -16.9792 -11.6161 14.9907
rtibia 27.7936
rfoot -3.2014 13.5564
rtoes -2.60281
lfemur -14.4831 13.3874 -16.7429
ltibia 51.8725
lfoot -6.18222 -1.12074
ltoes -21.7457
25
root 23.6427 19.4349 -1.75178 -15.2426 -77.6564 -345.594
lowerback 5.20929 2.38709 11.7396
upperback 11.6613 2.50739 1.15668
thorax 10.2729 2.04744 -5.20039
lowerneck 2.69353 -4.57348 3.7695
upperneck 24.4145 -6.8864 -1.79083
head 6.83226 -3.35117 -1.574
rclavicle -1.59028e-014 -5.08889e-014
rhumerus -13.9072 -6.9786 -82.6627
rradius 38.9275
rwrist -7.88894
rhand -15.8686 12.5118
rfingers 7.12502
rthumb 10.327 -17.2146
lclavicle -1.59028e-014 -5.08889e-014
lhumerus -25.0575 2.72732 87.6709
lradius 23.5905
lwrist -34.0749
lhand -11.5738 -8.85095
lfingers 7.12502
lthumb 14.4677 20.6247
rfemur -16.884 -11.5685 14.9942
rtibia 27.9078
rfoot -3.39682 13.5718
rtoes -2.33436
lfemur -14.8775 13.4944 -16.8234
ltibia 51.0955
lfoot -6.96218 -0.876408
ltoes -21.5953
